<svg width="32" height="32" viewBox="0 0 32 32" fill="none" xmlns="http://www.w3.org/2000/svg">
<g clip-path="url(#clip0_18_31)">
<path d="M6.25 29V3.8H21.784L25.492 7.508V15.32L23.296 17.336L25.492 19.73V29H20.398V21.53L18.598 19.73H11.344V29H6.25ZM8.248 27.056H9.364V17.624H19.444L22.45 20.846V27.056H23.548V20.504L20.434 17.102L23.44 14.546V8.48L20.704 5.762H8.248V27.056ZM11.344 14.636H19.3L20.398 13.52V9.992L19.3 8.894H11.344V14.636ZM9.364 16.508V6.86H20.2L22.324 8.948V14.186L19.552 16.508H9.364Z" fill="black"/>
</g>
<defs>
<clipPath id="clip0_18_31">
<rect width="32" height="32" fill="white"/>
</clipPath>
</defs>
</svg>
