<svg width="24" height="25" viewBox="0 0 24 25" fill="none" xmlns="http://www.w3.org/2000/svg">
<path d="M10.08 11.4245C10.13 11.0945 10.24 10.8045 10.38 10.5545C10.52 10.3045 10.72 10.0945 10.97 9.93445C11.21 9.78445 11.51 9.71445 11.88 9.70445C12.11 9.71445 12.32 9.75445 12.51 9.83445C12.71 9.92445 12.89 10.0445 13.03 10.1945C13.17 10.3445 13.28 10.5245 13.37 10.7245C13.46 10.9245 13.5 11.1445 13.51 11.3645H15.3C15.28 10.8945 15.19 10.4645 15.02 10.0745C14.85 9.68445 14.62 9.34445 14.32 9.06445C14.02 8.78445 13.66 8.56445 13.24 8.40445C12.82 8.24445 12.36 8.17445 11.85 8.17445C11.2 8.17445 10.63 8.28445 10.15 8.51445C9.67 8.74445 9.27 9.04445 8.95 9.43445C8.63 9.82445 8.39 10.2745 8.24 10.7945C8.09 11.3145 8 11.8545 8 12.4345V12.7045C8 13.2845 8.08 13.8245 8.23 14.3445C8.38 14.8645 8.62 15.3145 8.94 15.6945C9.26 16.0745 9.66 16.3845 10.14 16.6045C10.62 16.8245 11.19 16.9445 11.84 16.9445C12.31 16.9445 12.75 16.8645 13.16 16.7145C13.57 16.5645 13.93 16.3545 14.24 16.0845C14.55 15.8145 14.8 15.5045 14.98 15.1445C15.16 14.7845 15.27 14.4045 15.28 13.9945H13.49C13.48 14.2045 13.43 14.3945 13.34 14.5745C13.25 14.7545 13.13 14.9045 12.98 15.0345C12.83 15.1645 12.66 15.2645 12.46 15.3345C12.27 15.4045 12.07 15.4245 11.86 15.4345C11.5 15.4245 11.2 15.3545 10.97 15.2045C10.72 15.0445 10.52 14.8345 10.38 14.5845C10.24 14.3345 10.13 14.0345 10.08 13.7045C10.03 13.3745 10 13.0345 10 12.7045V12.4345C10 12.0845 10.03 11.7545 10.08 11.4245ZM12 2.56445C6.48 2.56445 2 7.04445 2 12.5645C2 18.0845 6.48 22.5645 12 22.5645C17.52 22.5645 22 18.0845 22 12.5645C22 7.04445 17.52 2.56445 12 2.56445ZM12 20.5645C7.59 20.5645 4 16.9745 4 12.5645C4 8.15445 7.59 4.56445 12 4.56445C16.41 4.56445 20 8.15445 20 12.5645C20 16.9745 16.41 20.5645 12 20.5645Z" fill="url(#paint0_linear_17_16)"/>
<defs>
<linearGradient id="paint0_linear_17_16" x1="12" y1="2.56445" x2="12" y2="22.5645" gradientUnits="userSpaceOnUse">
<stop stop-color="#6CF6FF"/>
<stop offset="1" stop-color="#008B94"/>
</linearGradient>
</defs>
</svg>
