<svg width="24" height="24" viewBox="0 0 24 24" fill="none" xmlns="http://www.w3.org/2000/svg">
<path d="M12.0083 0.0344238C5.40023 0.0344238 0.0428467 5.3918 0.0428467 11.9999C0.0428467 18.6082 5.40002 23.9657 12.0083 23.9657C18.6168 23.9657 23.9744 18.6082 23.9744 11.9999C23.9742 5.3918 18.6168 0.0344238 12.0083 0.0344238ZM7.04319 5.43111C7.85712 5.43111 8.51733 6.03318 8.51733 6.77594C8.51733 7.5187 7.85712 8.12077 7.04319 8.12077C6.22885 8.12077 5.56905 7.5187 5.56905 6.77594C5.56905 6.03318 6.22885 5.43111 7.04319 5.43111ZM8.5285 16.9335H5.61581V9.33318H8.5285V16.9335V16.9335ZM18.426 16.9335H15.4993V12.7542C15.4993 12.2771 15.4107 11.9395 15.2342 11.7413C15.0575 11.5435 14.8095 11.4441 14.4902 11.4441C14.1371 11.4441 13.8505 11.5778 13.6312 11.8451C13.4117 12.1124 13.3022 12.5918 13.3022 13.2837V16.9335H10.3893V9.33318H13.1015V10.571C13.5068 10.0656 13.9173 9.70415 14.3324 9.48691C14.7474 9.26987 15.2528 9.16146 15.8493 9.16146C16.6558 9.16146 17.2866 9.40105 17.7424 9.88063C18.1978 10.36 18.4258 11.1007 18.4258 12.1027V16.9335H18.426Z" fill="url(#paint0_linear_16_8)"/>
<defs>
<linearGradient id="paint0_linear_16_8" x1="12.0086" y1="0.0344238" x2="12.0086" y2="23.9657" gradientUnits="userSpaceOnUse">
<stop stop-color="#6CF6FF"/>
<stop offset="1" stop-color="#008B94"/>
</linearGradient>
</defs>
</svg>
