<svg width="144" height="44" viewBox="0 0 144 44" fill="none" xmlns="http://www.w3.org/2000/svg">
<path d="M0 33.8445V0.400024H20.6286L25.5527 5.32114V15.6889L22.6365 18.3645L25.5527 21.5417V33.8445H18.7881V23.9306L16.3977 21.5417H6.76466V33.8445H0ZM3.05963 30.8822H3.72893V18.3167H17.6885L21.9194 22.9034V30.8822H22.5887V22.7122L18.2622 17.9822L22.3975 14.5184V6.82614L18.9554 3.38614H3.05963V30.8822ZM6.76466 14.7811H17.33L18.7881 13.3V8.6178L17.33 7.16058H6.76466V14.7811ZM3.72893 17.6478V4.05502H18.7164L21.7282 7.01725V14.3034L17.6885 17.6478H3.72893Z" fill="#141414"/>
<path d="M35.8454 33.8445L30.9213 28.9234V12.9656L35.8454 8.04447H50.785L55.7091 12.9656V28.9234L50.785 33.8445H35.8454ZM37.7576 30.8345H49.1596L52.6495 27.3467V14.5422L49.1596 11.0545H37.5664L34.0287 14.59V27.1078L37.7576 30.8345ZM37.9967 30.1656L34.698 26.9167V14.7811L37.8055 11.7234H48.9205L51.9802 14.7334V27.1556L48.9205 30.1656H37.9967ZM39.144 27.0839H47.4863L48.9444 25.6267V16.2622L47.4863 14.805H39.144L37.6859 16.2622V25.6267L39.144 27.0839Z" fill="#141414"/>
<path d="M62.1824 43.4V36.6634H75.6161L77.5523 34.7284V33.3667L77.0742 33.8445H65.9114L60.9873 28.9234V12.9656L65.9114 8.04447H79.369L84.2931 12.9656V38.4789L79.369 43.4H62.1824ZM65.2182 40.4378H77.2894L81.4008 36.1856V14.6856L77.6718 10.9589H67.5129L64.023 14.4467V26.9884L67.7997 30.7628H76.381L80.7315 26.415V35.9945L77.0503 39.7689H65.2182V40.4378ZM68.0388 30.0939L64.6923 26.7972V14.6378L67.7519 11.6278H77.4328L80.7315 14.8767V25.555L76.142 30.0939H68.0388ZM69.21 27.0839H75.162L77.5523 24.695V16.2384L76.0703 14.7811H69.21L67.7519 16.2384V25.6267L69.21 27.0839Z" fill="#141414"/>
<path d="M109.701 8.04447L114.625 12.9656V19.7739L109.701 24.695H96.6974V25.6267L98.1555 27.0839H114.29V33.8445H94.8569L89.9328 28.9234V12.9656L94.8569 8.04447H109.701ZM107.813 11.7234L110.872 14.7334V18.3406L108.099 21.1117H93.3749V14.9722L96.6735 11.7234H107.813ZM108.052 11.0545H96.4345L92.7056 14.7811V27.2989L96.2433 30.8345H111.063V30.1656H96.4823L93.3749 27.1078V21.7806H108.291L111.541 18.5795V14.5422L108.052 11.0545ZM106.402 14.805H98.1555L96.6974 16.2622V18.1734H106.88L107.884 17.17V16.2622L106.402 14.805Z" fill="#141414"/>
<path d="M119.905 33.8445V27.1078H124.543V15.1395L124.184 14.7811H119.953V8.04447H126.001L127.626 9.95558L129.467 8.04447H138.765L144 13.2761L138.789 18.3406L135.49 14.805H132.765L131.307 16.2622V27.1317H135.945V33.8445H119.905ZM122.726 30.8106H133.124V30.1417H128.248V14.4467L130.853 11.8428H137.331L139.243 13.9928L139.721 13.5628L137.57 11.1739H130.638L127.889 13.9211L125.355 11.1739H122.726V11.8428H125.069L127.578 14.59V30.1417H122.726V30.8106Z" fill="#141414"/>
</svg>
